<svg width="960" height="909" viewBox="0 0 960 909" fill="none" xmlns="http://www.w3.org/2000/svg">
<g opacity="0.6" clip-path="url(#clip0_1063_8128)">
<path opacity="0.7" d="M792.61 909C703.315 768.895 564.811 671.947 402.566 636.056C240.365 600.121 73.8829 629.526 -66.2216 718.821L-67 717.61C73.1045 628.315 170.01 489.811 205.944 327.566C241.879 165.365 212.474 -1.11713 123.179 -141.222L124.39 -142C213.685 -1.89549 352.189 95.0534 514.39 130.944C676.592 166.879 843.074 137.474 983.178 48.1789L983.957 49.3897C843.852 138.685 746.903 277.189 711.012 439.434C675.078 601.635 704.483 768.117 793.778 908.222L792.567 909H792.61ZM266.872 619.667C312.104 619.667 357.638 624.597 402.869 634.629C555.514 668.444 687.229 756.139 776.827 882.925C699.683 748.139 675.813 591.732 709.585 439.088C743.401 286.443 831.096 154.728 957.882 65.1298C823.096 142.274 666.689 166.143 514.044 132.371C361.4 98.556 229.684 10.8609 140.087 -115.925C217.187 18.8607 241.1 175.268 207.285 327.912C173.469 480.557 85.7744 612.272 -41.0115 701.87C53.8185 647.601 159.373 619.667 266.786 619.667H266.872Z" fill="white"/>
<path opacity="0.6" d="M546.822 687.211C544.357 685.741 541.892 684.227 539.384 682.671L540.163 681.46C542.627 683.017 545.135 684.53 547.557 686L546.822 687.254V687.211ZM532.076 677.914C529.698 676.314 527.276 674.671 524.855 672.984L525.677 671.774C528.098 673.46 530.476 675.103 532.855 676.66L532.033 677.871L532.076 677.914ZM517.763 667.925C515.428 666.239 513.136 664.509 510.758 662.693L511.623 661.525C513.958 663.298 516.293 665.028 518.585 666.714L517.72 667.882L517.763 667.925ZM503.883 657.374C501.634 655.601 499.342 653.785 497.093 651.882L498.002 650.758C500.25 652.617 502.542 654.434 504.791 656.206L503.883 657.331V657.374ZM490.391 646.304C488.186 644.445 485.98 642.542 483.775 640.596L484.726 639.515C486.932 641.461 489.137 643.32 491.299 645.18L490.348 646.304H490.391ZM477.289 634.802C475.17 632.856 473.008 630.91 470.845 628.921L471.84 627.84C474.002 629.829 476.121 631.775 478.24 633.721L477.245 634.802H477.289ZM464.489 622.953C462.413 620.964 460.294 618.932 458.219 616.899L459.257 615.862C461.332 617.894 463.408 619.926 465.483 621.916L464.489 622.953ZM452.035 610.759C450.003 608.727 447.97 606.651 445.938 604.532L446.976 603.538C449.008 605.613 451.041 607.689 453.073 609.721L452.035 610.759ZM439.927 598.219C437.938 596.143 435.949 593.981 433.96 591.862L435.041 590.868C437.03 592.986 439.019 595.149 441.008 597.224L439.971 598.219H439.927ZM428.079 585.462C426.133 583.3 424.187 581.138 422.285 578.976L423.366 578.025C425.312 580.187 427.214 582.349 429.16 584.511L428.079 585.506V585.462ZM416.533 572.403C414.631 570.198 412.771 567.993 410.869 565.787L411.993 564.836C413.896 567.041 415.755 569.247 417.658 571.452L416.577 572.403H416.533ZM405.247 559.085C403.388 556.879 401.572 554.631 399.712 552.339L400.837 551.431C402.696 553.679 404.512 555.928 406.371 558.133L405.247 559.041V559.085ZM394.22 545.593C392.404 543.345 390.631 541.053 388.815 538.761L389.939 537.853C391.712 540.145 393.529 542.436 395.345 544.685L394.22 545.593ZM383.496 531.885C381.723 529.594 379.951 527.258 378.221 524.967L379.388 524.102C381.161 526.437 382.891 528.729 384.664 531.021L383.54 531.885H383.496ZM373.032 517.961C371.302 515.626 369.616 513.291 367.886 510.913L369.054 510.048C370.74 512.383 372.47 514.762 374.199 517.053L373.032 517.918V517.961ZM362.783 503.821C361.097 501.443 359.411 499.108 357.767 496.686L358.978 495.865C360.621 498.243 362.308 500.621 363.994 503L362.827 503.821H362.783ZM352.838 489.508C351.195 487.13 349.595 484.708 347.951 482.287L349.162 481.465C350.805 483.887 352.405 486.265 354.049 488.687L352.838 489.508ZM343.108 475.065C341.508 472.644 339.952 470.222 338.352 467.801L339.562 467.022C341.162 469.444 342.719 471.865 344.319 474.287L343.108 475.065ZM333.681 460.449C332.125 457.985 330.568 455.52 329.055 453.055L330.309 452.277C331.822 454.741 333.379 457.206 334.935 459.628L333.725 460.406L333.681 460.449ZM324.471 445.661C322.957 443.153 321.444 440.688 319.974 438.18L321.228 437.445C322.698 439.909 324.211 442.417 325.725 444.882L324.471 445.661ZM315.52 430.699C314.05 428.191 312.579 425.683 311.152 423.175L312.406 422.44C313.833 424.948 315.304 427.456 316.774 429.964L315.52 430.699ZM306.828 415.607C305.401 413.056 303.974 410.505 302.59 407.997L303.844 407.305C305.228 409.856 306.655 412.364 308.082 414.915L306.828 415.651V415.607ZM298.439 400.3C297.055 397.748 295.672 395.154 294.331 392.602L295.628 391.911C296.969 394.462 298.353 397.013 299.736 399.608L298.439 400.3ZM290.31 384.905C288.969 382.311 287.672 379.716 286.375 377.122L287.672 376.473C288.969 379.068 290.31 381.619 291.607 384.214L290.31 384.862V384.905ZM282.483 369.338C281.186 366.7 279.932 364.106 278.677 361.511L279.975 360.906C281.229 363.501 282.483 366.138 283.78 368.733L282.483 369.381V369.338ZM274.915 353.598C273.705 350.96 272.494 348.323 271.283 345.685L272.624 345.079C273.834 347.717 275.045 350.355 276.256 352.993L274.959 353.598H274.915ZM267.737 337.728C266.57 335.047 265.402 332.409 264.278 329.728L265.618 329.166C266.743 331.804 267.91 334.485 269.078 337.166L267.737 337.771V337.728ZM260.862 321.729C259.737 319.048 258.613 316.323 257.575 313.642L258.916 313.08C259.997 315.761 261.078 318.442 262.202 321.123L260.862 321.685V321.729ZM254.375 305.556C253.294 302.832 252.257 300.108 251.262 297.427L252.602 296.908C253.597 299.589 254.635 302.313 255.716 305.037L254.375 305.556ZM248.278 289.211C247.284 286.443 246.332 283.719 245.381 280.995L246.765 280.519C247.716 283.243 248.667 285.967 249.662 288.735L248.321 289.211H248.278ZM242.57 272.735C241.662 269.968 240.754 267.2 239.889 264.433L241.273 264C242.138 266.725 243.046 269.492 243.954 272.26L242.57 272.692V272.735ZM237.295 256.13C236.473 253.32 235.652 250.552 234.873 247.741L236.257 247.352C237.035 250.12 237.857 252.887 238.679 255.698L237.295 256.13ZM232.581 239.352C231.846 236.498 231.111 233.688 230.419 230.92L231.846 230.574C232.538 233.385 233.273 236.196 234.008 239.006L232.581 239.396V239.352ZM228.387 222.401C227.738 219.547 227.133 216.694 226.527 213.883L227.954 213.58C228.56 216.391 229.165 219.202 229.814 222.056L228.387 222.358V222.401ZM224.841 205.321C224.322 202.424 223.803 199.57 223.328 196.716L224.755 196.499C225.23 199.31 225.706 202.164 226.268 205.061L224.841 205.321ZM222.03 188.11C221.641 185.17 221.252 182.316 220.949 179.462L222.376 179.289C222.722 182.143 223.068 184.997 223.457 187.894L222.03 188.11Z" fill="white"/>
<path opacity="0.6" d="M695.142 587.365C694.796 584.511 694.45 581.657 694.061 578.76L695.488 578.544C695.877 581.484 696.267 584.338 696.569 587.192L695.142 587.365ZM692.721 570.155C692.245 567.344 691.769 564.49 691.207 561.593L692.634 561.333C693.153 564.23 693.672 567.084 694.148 569.938L692.721 570.155ZM689.564 553.074C688.959 550.263 688.353 547.452 687.705 544.598L689.132 544.296C689.78 547.15 690.386 550.004 690.991 552.814L689.564 553.117V553.074ZM685.672 536.123C684.98 533.312 684.245 530.502 683.51 527.691L684.937 527.302C685.672 530.156 686.407 532.966 687.099 535.734L685.672 536.08V536.123ZM681.218 519.302C680.44 516.534 679.618 513.767 678.797 510.956L680.18 510.524C681.002 513.334 681.824 516.102 682.602 518.913L681.218 519.302ZM676.245 502.654C675.381 499.929 674.472 497.162 673.564 494.394L674.948 493.962C675.856 496.729 676.764 499.497 677.629 502.264L676.245 502.697V502.654ZM670.797 486.135C669.846 483.411 668.894 480.687 667.9 477.919L669.24 477.443C670.235 480.211 671.186 482.935 672.137 485.659L670.754 486.135H670.797ZM664.873 469.79C663.878 467.109 662.84 464.384 661.759 461.66L663.1 461.141C664.181 463.865 665.219 466.59 666.213 469.271L664.873 469.79ZM658.603 453.574C657.522 450.893 656.44 448.212 655.316 445.531L656.657 444.969C657.781 447.65 658.905 450.374 659.943 453.055L658.603 453.617V453.574ZM651.9 437.488C650.776 434.85 649.608 432.169 648.441 429.488L649.781 428.883C650.949 431.564 652.116 434.201 653.241 436.882L651.9 437.444V437.488ZM644.895 421.575C643.684 418.937 642.473 416.299 641.263 413.661L642.56 413.056C643.771 415.694 644.981 418.331 646.192 420.969L644.852 421.575H644.895ZM637.544 405.791C636.29 403.197 635.036 400.559 633.738 397.964L635.036 397.316C636.333 399.954 637.587 402.548 638.841 405.143L637.544 405.748V405.791ZM629.89 390.181C628.593 387.586 627.252 385.035 625.955 382.44L627.252 381.792C628.593 384.386 629.89 386.981 631.187 389.575L629.89 390.224V390.181ZM621.89 374.7C620.55 372.149 619.166 369.598 617.782 367.003L619.079 366.311C620.463 368.862 621.847 371.457 623.187 374.008L621.89 374.7ZM613.631 359.392C612.247 356.841 610.82 354.333 609.393 351.782L610.647 351.047C612.074 353.598 613.501 356.149 614.885 358.657L613.631 359.349V359.392ZM605.112 344.214C603.685 341.706 602.215 339.198 600.745 336.69L601.999 335.955C603.469 338.463 604.939 340.971 606.366 343.479L605.112 344.214ZM596.291 329.209C594.82 326.745 593.307 324.237 591.794 321.772L593.048 320.993C594.561 323.501 596.074 325.966 597.545 328.474L596.291 329.209ZM587.253 314.377C585.74 311.913 584.183 309.448 582.626 307.026L583.837 306.248C585.394 308.713 586.95 311.177 588.464 313.642L587.21 314.421L587.253 314.377ZM577.913 299.675C576.313 297.253 574.756 294.832 573.156 292.41L574.367 291.632C575.967 294.054 577.524 296.475 579.124 298.897L577.913 299.675ZM568.356 285.146C566.713 282.724 565.113 280.346 563.47 277.924L564.681 277.103C566.324 279.481 567.924 281.903 569.567 284.324L568.356 285.146ZM558.54 270.789C556.897 268.411 555.211 266.033 553.524 263.654L554.692 262.833C556.378 265.211 558.065 267.546 559.708 269.968L558.497 270.789H558.54ZM548.465 256.606C546.778 254.271 545.049 251.892 543.319 249.601L544.487 248.736C546.216 251.071 547.903 253.406 549.632 255.784L548.465 256.649V256.606ZM538.13 242.595C536.357 240.26 534.627 237.969 532.855 235.677L533.979 234.812C535.752 237.104 537.525 239.439 539.254 241.731L538.087 242.595H538.13ZM527.536 228.801C525.763 226.509 523.947 224.218 522.13 221.969L523.255 221.061C525.071 223.309 526.844 225.601 528.66 227.893L527.536 228.801ZM516.682 215.223C514.823 212.975 513.006 210.726 511.147 208.521L512.271 207.613C514.131 209.818 515.947 212.067 517.806 214.358L516.682 215.266V215.223ZM505.569 201.818C503.666 199.613 501.807 197.407 499.904 195.202L500.985 194.251C502.888 196.456 504.747 198.661 506.65 200.867L505.525 201.818H505.569ZM494.153 188.673C492.207 186.467 490.304 184.348 488.358 182.186L489.439 181.192C491.385 183.354 493.331 185.516 495.234 187.678L494.153 188.629V188.673ZM482.477 175.786C480.488 173.667 478.499 171.505 476.51 169.43L477.548 168.435C479.537 170.511 481.526 172.673 483.515 174.792L482.434 175.786H482.477ZM470.499 163.16C468.467 161.084 466.435 159.008 464.402 156.976L465.44 155.938C467.472 157.971 469.505 160.046 471.537 162.165L470.499 163.16ZM458.262 150.792C456.186 148.76 454.111 146.728 452.035 144.738L453.03 143.701C455.105 145.69 457.224 147.722 459.3 149.755L458.262 150.792ZM445.678 138.814C443.516 136.825 441.397 134.879 439.279 132.933L440.273 131.852C442.392 133.798 444.554 135.744 446.716 137.733L445.722 138.814H445.678ZM432.749 127.139C430.544 125.193 428.338 123.334 426.176 121.474L427.127 120.35C429.333 122.209 431.538 124.112 433.744 126.058L432.792 127.139H432.749ZM419.517 115.896C417.268 114.037 414.976 112.22 412.728 110.447L413.636 109.323C415.885 111.096 418.176 112.912 420.425 114.815L419.517 115.939V115.896ZM405.852 105.129C403.517 103.356 401.182 101.626 398.89 99.9396L399.755 98.7721C402.09 100.459 404.382 102.188 406.76 104.004L405.896 105.172L405.852 105.129ZM391.799 94.8803C389.377 93.1939 386.999 91.5507 384.621 89.994L385.442 88.7832C387.82 90.3831 390.242 92.0263 392.664 93.7128L391.842 94.9236L391.799 94.8803ZM377.356 85.2373C374.891 83.6806 372.383 82.1671 369.961 80.6969L370.697 79.4429C373.161 80.9131 375.626 82.4266 378.134 83.9833L377.356 85.1941V85.2373Z" fill="white"/>
<path opacity="0.5" d="M156.129 472.168L154.875 471.433C156.345 468.968 157.859 466.503 159.415 463.995L160.626 464.774C159.069 467.238 157.556 469.746 156.086 472.168H156.129ZM165.383 457.422L164.172 456.601C165.772 454.222 167.415 451.801 169.102 449.379L170.312 450.201C168.626 452.622 166.983 455.001 165.426 457.379L165.383 457.422ZM175.329 443.196L174.161 442.331C175.847 439.996 177.577 437.661 179.35 435.326L180.518 436.19C178.745 438.526 177.015 440.861 175.329 443.152V443.196ZM185.836 429.358L184.712 428.45C186.485 426.202 188.301 423.953 190.161 421.661L191.285 422.569C189.425 424.818 187.609 427.11 185.836 429.358ZM196.906 415.91L195.782 414.959C197.641 412.753 199.544 410.548 201.49 408.343L202.571 409.294C200.625 411.499 198.766 413.705 196.906 415.867V415.91ZM208.366 402.808L207.284 401.856C209.23 399.737 211.176 397.575 213.165 395.413L214.246 396.408C212.257 398.527 210.311 400.689 208.366 402.808ZM220.171 390.094L219.133 389.1C221.122 387.024 223.154 384.949 225.187 382.83L226.224 383.824C224.192 385.9 222.16 387.975 220.171 390.094ZM232.365 377.684L231.327 376.646C233.359 374.614 235.435 372.581 237.554 370.549L238.549 371.587C236.473 373.619 234.397 375.651 232.322 377.684H232.365ZM244.862 365.533L243.867 364.495C245.943 362.506 248.105 360.517 250.224 358.528L251.218 359.609C249.056 361.598 246.981 363.587 244.862 365.576V365.533ZM257.618 353.728L256.624 352.647C258.786 350.701 260.948 348.755 263.11 346.852L264.061 347.933C261.899 349.879 259.737 351.782 257.575 353.728H257.618ZM270.634 342.182L269.683 341.101C271.845 339.198 274.094 337.296 276.299 335.436L277.25 336.561C275.045 338.463 272.84 340.323 270.634 342.225V342.182ZM283.91 330.939L283.001 329.815C285.25 327.955 287.455 326.139 289.747 324.28L290.655 325.404C288.407 327.22 286.158 329.08 283.953 330.939H283.91ZM297.401 319.956L296.493 318.831C298.742 317.015 301.033 315.242 303.325 313.426L304.233 314.55C301.941 316.367 299.65 318.139 297.401 319.956ZM311.109 309.232L310.244 308.064C312.536 306.291 314.871 304.561 317.163 302.788L318.028 303.956C315.692 305.729 313.401 307.459 311.109 309.232ZM324.99 298.767L324.125 297.599C326.46 295.87 328.795 294.183 331.173 292.454L332.038 293.621C329.66 295.351 327.325 297.037 325.033 298.767H324.99ZM339.086 288.562L338.265 287.394C340.643 285.708 342.978 284.065 345.4 282.378L346.221 283.589C343.843 285.275 341.465 286.919 339.086 288.605V288.562ZM353.356 278.616L352.535 277.405C354.913 275.762 357.335 274.119 359.756 272.519L360.578 273.73C358.156 275.33 355.778 276.973 353.356 278.616ZM367.799 268.93L367.021 267.719C369.442 266.119 371.864 264.562 374.286 262.962L375.064 264.173C372.642 265.73 370.221 267.33 367.799 268.93ZM382.415 259.46L381.637 258.249C384.102 256.692 386.566 255.136 389.031 253.622L389.809 254.833C387.345 256.346 384.88 257.903 382.458 259.46H382.415ZM397.204 250.293L396.426 249.039C398.934 247.525 401.398 246.012 403.906 244.541L404.642 245.795C402.133 247.266 399.669 248.779 397.204 250.293ZM412.122 241.341L411.387 240.087C413.895 238.617 416.403 237.147 418.911 235.72L419.647 236.974C417.139 238.401 414.63 239.871 412.122 241.341ZM427.214 232.65L426.479 231.396C429.03 229.969 431.538 228.542 434.089 227.158L434.781 228.412C432.23 229.796 429.722 231.223 427.171 232.65H427.214ZM442.435 224.261L441.743 223.007C444.295 221.623 446.889 220.239 449.44 218.899L450.132 220.196C447.581 221.537 445.03 222.92 442.478 224.304L442.435 224.261ZM457.829 216.175L457.181 214.877C459.775 213.537 462.37 212.239 464.964 210.942L465.613 212.239C463.018 213.537 460.467 214.834 457.873 216.175H457.829ZM473.397 208.348L472.748 207.05C475.386 205.753 477.98 204.499 480.575 203.245L481.18 204.542C478.586 205.796 475.991 207.05 473.353 208.348H473.397ZM489.093 200.824L488.488 199.526C491.126 198.272 493.764 197.061 496.401 195.894L497.007 197.234C494.369 198.445 491.731 199.656 489.093 200.867V200.824ZM504.92 193.645L504.315 192.305C506.996 191.137 509.633 189.97 512.314 188.845L512.877 190.186C510.239 191.31 507.558 192.478 504.92 193.645ZM520.92 186.77L520.358 185.429C523.039 184.305 525.763 183.224 528.444 182.143L529.006 183.483C526.325 184.564 523.644 185.646 520.963 186.77H520.92ZM537.049 180.284L536.53 178.943C539.254 177.905 541.979 176.867 544.66 175.83L545.179 177.17C542.454 178.165 539.773 179.202 537.049 180.284ZM553.351 174.186L552.876 172.803C555.643 171.808 558.367 170.857 561.092 169.905L561.567 171.289C558.843 172.24 556.119 173.192 553.351 174.186ZM569.783 168.522L569.351 167.138C572.118 166.23 574.886 165.322 577.653 164.457L578.086 165.841C575.318 166.706 572.594 167.614 569.783 168.522ZM586.388 163.289L585.956 161.906C588.767 161.084 591.577 160.262 594.345 159.484L594.734 160.868C591.966 161.646 589.199 162.468 586.388 163.289ZM603.123 158.533L602.734 157.149C605.588 156.414 608.398 155.679 611.166 154.987L611.512 156.414C608.744 157.106 605.934 157.841 603.08 158.576L603.123 158.533ZM619.987 154.381L619.685 152.954C622.539 152.306 625.393 151.7 628.203 151.095L628.506 152.522C625.695 153.127 622.885 153.733 620.031 154.381H619.987ZM637.025 150.836L636.765 149.409C639.663 148.89 642.517 148.371 645.371 147.895L645.63 149.322C642.819 149.798 639.965 150.273 637.068 150.836H637.025ZM654.149 148.025L653.932 146.598C656.873 146.209 659.727 145.82 662.581 145.517L662.754 146.944C659.9 147.247 657.046 147.636 654.149 148.025Z" fill="white"/>
<path d="M254.894 621.18L254.721 619.753C257.575 619.451 260.429 619.062 263.326 618.672L263.543 620.099C260.602 620.489 257.748 620.878 254.894 621.18ZM272.148 618.759L271.888 617.332C274.699 616.856 277.553 616.38 280.45 615.818L280.71 617.245C277.812 617.764 274.958 618.283 272.105 618.759H272.148ZM289.315 615.559L289.012 614.132C291.823 613.527 294.634 612.921 297.488 612.272L297.79 613.699C294.936 614.348 292.082 614.954 289.272 615.559H289.315ZM306.309 611.667L305.963 610.24C308.731 609.548 311.541 608.813 314.395 608.078L314.785 609.462C311.931 610.197 309.12 610.932 306.352 611.624L306.309 611.667ZM323.173 607.213L322.784 605.829C325.552 605.051 328.319 604.229 331.13 603.408L331.562 604.792C328.752 605.613 325.941 606.435 323.173 607.213ZM339.865 602.197L339.433 600.813C342.2 599.948 344.924 599.04 347.735 598.132L348.167 599.516C345.4 600.424 342.632 601.332 339.865 602.197ZM356.427 596.749L355.951 595.365C358.675 594.414 361.4 593.462 364.167 592.468L364.643 593.851C361.875 594.846 359.151 595.797 356.427 596.749ZM372.815 590.824L372.297 589.484C375.021 588.489 377.702 587.452 380.426 586.37L380.945 587.711C378.221 588.749 375.496 589.787 372.815 590.824ZM389.074 584.511L388.512 583.171C391.193 582.089 393.874 581.008 396.555 579.884L397.118 581.225C394.437 582.349 391.712 583.43 389.031 584.511H389.074ZM405.161 577.809L404.598 576.468C407.236 575.344 409.917 574.176 412.555 573.009L413.16 574.349C410.479 575.517 407.842 576.684 405.161 577.809ZM421.117 570.803L420.512 569.463C423.149 568.252 425.787 567.041 428.425 565.83L429.03 567.128C426.392 568.382 423.755 569.593 421.117 570.76V570.803ZM436.9 563.409L436.295 562.112C438.889 560.858 441.484 559.604 444.122 558.306L444.77 559.604C442.133 560.901 439.538 562.155 436.944 563.409H436.9ZM452.554 555.755L451.905 554.458C454.5 553.16 457.051 551.863 459.646 550.523L460.294 551.82C457.7 553.16 455.105 554.458 452.511 555.755H452.554ZM468.035 547.755L467.343 546.458C469.894 545.117 472.445 543.734 474.997 542.35L475.688 543.604C473.137 544.988 470.543 546.371 467.991 547.712L468.035 547.755ZM483.386 539.496L482.694 538.242C485.245 536.858 487.753 535.431 490.304 534.004L491.039 535.258C488.488 536.685 485.98 538.112 483.429 539.496H483.386ZM498.564 530.934L497.828 529.68C500.336 528.253 502.845 526.783 505.353 525.313L506.088 526.567C503.58 528.037 501.072 529.507 498.564 530.934ZM513.612 522.156L512.877 520.902C515.385 519.432 517.85 517.918 520.314 516.405L521.093 517.659C518.585 519.172 516.12 520.686 513.612 522.156ZM528.487 513.032L527.709 511.821C530.174 510.308 532.638 508.751 535.06 507.194L535.838 508.405C533.373 509.962 530.909 511.518 528.444 513.032H528.487ZM543.189 503.735L542.411 502.524C544.833 500.967 547.254 499.367 549.676 497.767L550.454 498.978C548.033 500.578 545.611 502.135 543.189 503.735ZM557.719 494.135L556.897 492.924C559.319 491.324 561.697 489.681 564.119 488.038L564.94 489.249C562.562 490.892 560.14 492.535 557.719 494.135ZM572.118 484.319L571.297 483.108C573.675 481.422 576.053 479.779 578.432 478.092L579.253 479.26C576.875 480.946 574.54 482.589 572.118 484.276V484.319ZM586.302 474.2L585.437 473.033C587.815 471.303 590.15 469.617 592.442 467.887L593.307 469.055C590.972 470.784 588.637 472.471 586.259 474.2H586.302ZM600.356 463.865L599.491 462.698C601.826 460.925 604.118 459.195 606.409 457.422L607.274 458.59C604.982 460.363 602.647 462.093 600.356 463.865ZM614.15 453.271L613.242 452.147C615.534 450.331 617.825 448.558 620.074 446.742L620.982 447.866C618.733 449.682 616.442 451.455 614.15 453.271ZM627.814 442.374L626.906 441.25C629.155 439.434 631.403 437.574 633.609 435.715L634.517 436.839C632.268 438.699 630.063 440.515 627.771 442.374H627.814ZM641.219 431.218L640.268 430.093C642.473 428.191 644.679 426.331 646.884 424.429L647.835 425.51C645.673 427.412 643.425 429.315 641.219 431.174V431.218ZM654.365 419.802L653.414 418.721C655.576 416.775 657.738 414.872 659.9 412.926L660.895 414.007C658.732 415.953 656.57 417.899 654.408 419.802H654.365ZM667.294 408.126L666.3 407.045C668.462 405.056 670.538 403.067 672.656 401.078L673.651 402.116C671.575 404.105 669.413 406.094 667.294 408.083V408.126ZM679.964 396.148L678.97 395.111C681.045 393.078 683.121 391.046 685.197 389.013L686.234 390.051C684.202 392.084 682.126 394.116 680.008 396.148H679.964ZM692.288 383.824L691.251 382.83C693.283 380.754 695.315 378.678 697.304 376.56L698.342 377.554C696.353 379.63 694.321 381.705 692.288 383.824ZM704.353 371.241L703.272 370.246C705.261 368.127 707.207 365.965 709.153 363.846L710.234 364.798C708.288 366.917 706.342 369.079 704.353 371.241ZM716.028 358.311L714.947 357.36C716.893 355.155 718.752 352.949 720.612 350.787L721.736 351.739C719.877 353.944 717.974 356.149 716.028 358.355V358.311ZM727.314 344.993L726.19 344.085C728.05 341.836 729.866 339.544 731.639 337.296L732.763 338.204C730.99 340.452 729.174 342.701 727.314 344.993ZM738.125 331.328L736.957 330.464C738.73 328.128 740.46 325.793 742.146 323.502L743.314 324.366C741.628 326.701 739.898 329.037 738.125 331.372V331.328ZM748.417 317.231L747.206 316.41C748.892 313.988 750.535 311.61 752.092 309.232L753.303 310.053C751.703 312.432 750.06 314.853 748.373 317.275L748.417 317.231ZM758.06 302.702L756.849 301.924C758.406 299.459 759.919 296.951 761.389 294.529L762.643 295.264C761.173 297.729 759.66 300.194 758.103 302.702H758.06Z" fill="white"/>
<path d="M779.551 889.368L777.951 886.86L779.162 886.082L780.762 888.59L779.551 889.368ZM773.281 879.509L768.611 872.158L769.821 871.379L774.492 878.73L773.281 879.509ZM763.941 864.807L759.27 857.455L760.481 856.677L765.151 864.028L763.941 864.807ZM754.557 850.147L749.887 842.796L751.098 842.018L755.768 849.369L754.557 850.147ZM745.217 835.445L740.547 828.094L741.757 827.316L746.427 834.667L745.217 835.445ZM735.876 820.743L731.206 813.392L732.417 812.613L737.087 819.964L735.876 820.743ZM726.493 806.084L721.823 798.733L723.033 797.954L727.704 805.305L726.493 806.084ZM717.153 791.381L712.482 784.03L713.693 783.252L718.363 790.603L717.153 791.381ZM707.812 776.679L703.142 769.328L704.353 768.55L709.023 775.901L707.812 776.679ZM698.429 762.02L693.759 754.669L694.969 753.89L699.639 761.242L698.429 762.02ZM689.088 747.318L684.418 739.967L685.629 739.188L690.299 746.539L689.088 747.318ZM679.748 732.615L675.078 725.264L676.289 724.486L680.959 731.837L679.748 732.615ZM670.408 717.956L665.738 710.605L666.948 709.827L671.619 717.178L670.408 717.956ZM661.024 703.254L656.354 695.903L657.565 695.124L662.235 702.476L661.024 703.254ZM651.684 688.595L647.014 681.244L648.225 680.465L652.895 687.816L651.684 688.595ZM642.344 673.892L637.674 666.541L638.884 665.763L643.554 673.114L642.344 673.892ZM632.96 659.19L628.29 651.839L629.501 651.061L634.171 658.412L632.96 659.19ZM623.62 644.531L618.95 637.18L620.16 636.402L624.831 643.753L623.62 644.531ZM614.28 629.829L609.609 622.478L610.82 621.699L615.49 629.05L614.28 629.829ZM604.896 615.126L600.226 607.775L601.437 606.997L606.107 614.348L604.896 615.126ZM595.556 600.467L590.886 593.116L592.096 592.338L596.766 599.689L595.556 600.467ZM586.215 585.765L581.545 578.414L582.756 577.636L587.426 584.987L586.215 585.765ZM576.832 571.106L572.162 563.755L573.372 562.976L578.043 570.328L576.832 571.106ZM567.492 556.404L562.821 549.052L564.032 548.274L568.702 555.625L567.492 556.404ZM558.151 541.701L553.481 534.35L554.692 533.572L559.362 540.923L558.151 541.701ZM548.768 527.042L544.098 519.691L545.308 518.913L549.978 526.264L548.768 527.042ZM539.427 512.34L534.757 504.989L535.968 504.21L540.638 511.562L539.427 512.34ZM530.087 497.638L525.417 490.286L526.628 489.508L531.298 496.859L530.087 497.638ZM520.704 482.979L516.033 475.627L517.244 474.849L521.914 482.2L520.704 482.979ZM511.363 468.276L506.693 460.925L507.904 460.147L512.574 467.498L511.363 468.276ZM502.023 453.574L497.353 446.223L498.564 445.444L503.234 452.796L502.023 453.574ZM492.683 438.915L488.013 431.564L489.223 430.785L493.894 438.136L492.683 438.915ZM483.299 424.212L478.629 416.861L479.84 416.083L484.51 423.434L483.299 424.212ZM473.959 409.51L469.289 402.159L470.499 401.381L475.17 408.732L473.959 409.51ZM464.619 394.851L459.948 387.5L461.159 386.722L465.829 394.073L464.619 394.851ZM455.235 380.149L450.565 372.798L451.776 372.019L456.446 379.37L455.235 380.149ZM445.895 365.49L441.225 358.138L442.435 357.36L447.105 364.711L445.895 365.49ZM436.554 350.787L431.884 343.436L433.095 342.658L437.765 350.009L436.554 350.787ZM427.171 336.085L422.501 328.734L423.711 327.955L428.382 335.307L427.171 336.085ZM417.831 321.426L413.16 314.075L414.371 313.296L419.041 320.648L417.831 321.426ZM408.49 306.724L403.82 299.372L405.031 298.594L409.701 305.945L408.49 306.724ZM399.107 292.021L394.437 284.67L395.647 283.892L400.317 291.243L399.107 292.021ZM389.766 277.362L385.096 270.011L386.307 269.233L390.977 276.584L389.766 277.362ZM380.426 262.66L375.756 255.309L376.967 254.53L381.637 261.882L380.426 262.66ZM371.043 247.958L366.372 240.606L367.583 239.828L372.253 247.179L371.043 247.958ZM361.702 233.298L357.032 225.947L358.243 225.169L362.913 232.52L361.702 233.298ZM352.362 218.596L347.692 211.245L348.903 210.467L353.573 217.818L352.362 218.596ZM342.978 203.937L338.308 196.586L339.519 195.808L344.189 203.159L342.978 203.937ZM333.638 189.235L328.968 181.884L330.179 181.105L334.849 188.456L333.638 189.235ZM324.298 174.532L319.628 167.181L320.838 166.403L325.509 173.754L324.298 174.532ZM314.914 159.873L310.244 152.522L311.455 151.744L316.125 159.095L314.914 159.873ZM305.574 145.171L300.904 137.82L302.115 137.041L306.785 144.393L305.574 145.171ZM296.234 130.469L291.564 123.118L292.774 122.339L297.444 129.69L296.234 130.469ZM286.85 115.81L282.18 108.458L283.391 107.68L288.061 115.031L286.85 115.81ZM277.51 101.107L272.84 93.7561L274.051 92.9777L278.721 100.329L277.51 101.107ZM268.17 86.4049L263.499 79.0538L264.71 78.2754L269.38 85.6266L268.17 86.4049ZM258.786 71.7459L254.116 64.3947L255.327 63.6163L259.997 70.9675L258.786 71.7459ZM249.446 57.0435L244.776 49.6924L245.986 48.914L250.656 56.2652L249.446 57.0435ZM240.105 42.3844L235.435 35.0333L236.646 34.2549L241.316 41.6061L240.105 42.3844ZM230.722 27.6821L226.052 20.331L227.263 19.5526L231.933 26.9038L230.722 27.6821ZM221.382 12.9798L216.711 5.62863L217.922 4.85027L222.592 12.2014L221.382 12.9798ZM212.041 -1.67928L207.371 -9.03045L208.582 -9.80881L213.252 -2.45764L212.041 -1.67928ZM202.658 -16.3816L197.988 -23.7328L199.198 -24.5111L203.869 -17.16L202.658 -16.3816ZM193.317 -31.0839L188.647 -38.4351L189.858 -39.2135L194.528 -31.8623L193.317 -31.0839ZM183.977 -45.743L179.307 -53.0942L180.518 -53.8725L185.188 -46.5214L183.977 -45.743ZM174.637 -60.4453L169.967 -67.7965L171.177 -68.5749L175.848 -61.2237L174.637 -60.4453ZM165.253 -75.1477L160.583 -82.4988L161.794 -83.2772L166.464 -75.926L165.253 -75.1477ZM155.913 -89.8068L151.243 -97.1579L152.454 -97.9363L157.124 -90.5851L155.913 -89.8068ZM146.573 -104.509L141.903 -111.86L143.113 -112.639L147.783 -105.287L146.573 -104.509ZM137.189 -119.211L132.519 -126.563L133.73 -127.341L138.4 -119.99L137.189 -119.211ZM127.849 -133.87L123.179 -141.222L124.389 -142L129.06 -134.649L127.849 -133.87Z" fill="white"/>
</g>
<defs>
<clipPath id="clip0_1063_8128">
<rect width="1051" height="1051" fill="white" transform="translate(-67 -142)"/>
</clipPath>
</defs>
</svg>
